<svg width="24" height="24" viewBox="0 0 24 24" fill="none" xmlns="http://www.w3.org/2000/svg">
<g clip-path="url(#clip0_181_4631)">
<path d="M12.9371 0.187485C13.3419 0.48923 13.6889 0.849418 13.7808 1.35936C13.8314 1.91958 13.7928 2.37943 13.4518 2.84911C13.2858 3.04681 13.1326 3.18778 12.9058 3.31128C12.8678 3.33208 12.8297 3.35288 12.7906 3.37431C12.7616 3.39 12.7326 3.40569 12.7027 3.42186C12.734 3.42214 12.7653 3.42241 12.7975 3.42269C13.1284 3.42573 13.4593 3.4297 13.7902 3.43416C13.913 3.4357 14.0359 3.43702 14.1588 3.4381C15.8711 3.45349 17.4951 3.67305 18.8433 4.82811C18.8677 4.84868 18.892 4.86926 18.9171 4.89046C19.689 5.54823 20.3593 6.4305 20.6714 7.40624C20.6714 7.45264 20.6714 7.49905 20.6714 7.54686C20.7151 7.54807 20.7588 7.54928 20.8038 7.55052C21.7641 7.59324 22.5835 7.95543 23.2408 8.66893C23.9089 9.4774 24.0671 10.3725 23.9996 11.3906C23.9032 12.18 23.443 12.9021 22.8482 13.415C22.2103 13.8979 21.5115 14.1197 20.7183 14.1562C20.7125 14.1814 20.7067 14.2065 20.7007 14.2324C20.3452 15.5834 19.3042 16.7642 18.1272 17.4783C17.0334 18.1162 15.8895 18.3354 14.6322 18.3349C14.5693 18.3351 14.5064 18.3352 14.4435 18.3354C14.2743 18.3358 14.1051 18.3359 13.9359 18.336C13.8296 18.336 13.7234 18.3361 13.6172 18.3362C13.2451 18.3366 12.873 18.3368 12.5009 18.3368C12.1565 18.3368 11.8121 18.3373 11.4676 18.338C11.17 18.3386 10.8723 18.3389 10.5746 18.3388C10.3977 18.3388 10.2208 18.339 10.0439 18.3395C8.2258 18.3443 8.2258 18.3443 7.47026 18.1318C7.43369 18.1218 7.39713 18.1118 7.35945 18.1015C6.52538 17.8627 5.75994 17.4471 5.10893 16.875C5.07002 16.8428 5.03111 16.8107 4.99101 16.7776C4.22309 16.1256 3.56493 15.1369 3.32768 14.1562C3.28901 14.1556 3.25034 14.1549 3.2105 14.1542C2.26701 14.1153 1.45116 13.7459 0.787645 13.0669C0.0888658 12.2549 -0.0770322 11.3085 -0.000441311 10.2656C0.098825 9.47095 0.591718 8.74858 1.19505 8.24596C1.87466 7.74634 2.55024 7.57685 3.37456 7.54686C3.37994 7.51429 3.38531 7.48172 3.39086 7.44817C3.66476 6.23282 4.70502 5.10108 5.71378 4.43845C6.23827 4.1078 6.79369 3.85781 7.38823 3.6826C7.42504 3.67159 7.46184 3.66058 7.49976 3.64923C8.33077 3.4219 9.20342 3.44963 10.0572 3.43944C10.1823 3.43769 10.3074 3.43581 10.4325 3.43395C10.7361 3.42949 11.0397 3.42549 11.3433 3.42186C11.3109 3.40272 11.2784 3.38357 11.245 3.36385C11.2025 3.33865 11.1601 3.31345 11.1164 3.28748C11.0743 3.26254 11.0322 3.2376 10.9888 3.2119C10.6089 2.97478 10.3708 2.58564 10.2652 2.15624C10.1958 1.62553 10.2734 1.20593 10.5376 0.741196C11.0938 0.0261659 12.108 -0.297742 12.9371 0.187485ZM6.65581 9.04686C6.54358 9.19593 6.45608 9.34798 6.37456 9.51561C6.35522 9.55344 6.33589 9.59126 6.31596 9.63023C6.10768 10.1032 6.11387 10.6884 6.2603 11.1797C6.49298 11.772 6.93009 12.2384 7.49956 12.5156C8.03413 12.7357 8.66436 12.7343 9.20171 12.5284C9.40008 12.4344 9.57461 12.3193 9.74956 12.1875C9.79016 12.1604 9.83077 12.1333 9.87261 12.1055C10.2948 11.7055 10.5429 11.1692 10.5933 10.5937C10.6088 9.90514 10.3685 9.35687 9.89934 8.8643C9.48726 8.47189 8.96367 8.25778 8.39897 8.23534C7.70987 8.25243 7.11881 8.54461 6.65581 9.04686ZM13.9354 9.00401C13.5343 9.51288 13.3561 10.0898 13.4058 10.7344C13.4858 11.2958 13.752 11.8326 14.2027 12.1875C14.7534 12.5837 15.3158 12.713 15.9839 12.6562C16.5627 12.5558 17.071 12.2098 17.4288 11.7493C17.7779 11.2085 17.9066 10.5951 17.7795 9.96294C17.6874 9.63079 17.5525 9.36609 17.3433 9.09374C17.3162 9.05313 17.2892 9.01252 17.2613 8.97069C16.8634 8.55067 16.307 8.29004 15.7331 8.24046C15.0272 8.22591 14.4196 8.49357 13.9354 9.00401Z" fill="#0D80F2"/>
<path d="M17.8574 21.4885C18.5421 22.1025 19.1177 22.8155 19.5762 23.6133C19.6003 23.6552 19.6003 23.6552 19.6249 23.698C19.7344 23.8939 19.7344 23.8939 19.7344 24C14.6452 24 9.55594 24 4.3125 24C4.41822 23.6828 4.41822 23.6828 4.49982 23.5503C4.518 23.5207 4.53618 23.4912 4.55491 23.4607C4.57449 23.4299 4.59408 23.399 4.61426 23.3672C4.63493 23.3345 4.6556 23.3018 4.6769 23.2681C5.91467 21.3438 7.86283 19.979 10.0906 19.4624C12.8726 18.8611 15.724 19.6072 17.8574 21.4885Z" fill="#0D80F2"/>
</g>
<defs>
<clipPath id="clip0_181_4631">
<rect width="24" height="24" fill="white"/>
</clipPath>
</defs>
</svg>
