<svg width="24" height="25" viewBox="0 0 24 25" fill="none" xmlns="http://www.w3.org/2000/svg">
<g clip-path="url(#clip0_3_319)">
<path fill-rule="evenodd" clip-rule="evenodd" d="M13.125 12.3333C13.125 12.9547 12.6213 13.4583 12 13.4583C11.3787 13.4583 10.875 12.9547 10.875 12.3333C10.875 11.712 11.3787 11.2083 12 11.2083C12.6213 11.2083 13.125 11.712 13.125 12.3333ZM7.875 11.2083C7.25368 11.2083 6.75 11.712 6.75 12.3333C6.75 12.9547 7.25368 13.4583 7.875 13.4583C8.49632 13.4583 9 12.9547 9 12.3333C9 11.712 8.49632 11.2083 7.875 11.2083ZM16.125 11.2083C15.5037 11.2083 15 11.712 15 12.3333C15 12.9547 15.5037 13.4583 16.125 13.4583C16.7463 13.4583 17.25 12.9547 17.25 12.3333C17.25 11.712 16.7463 11.2083 16.125 11.2083ZM21.75 12.3333C21.7507 15.7574 19.9553 18.9309 17.02 20.6938C14.0847 22.4568 10.4398 22.5508 7.4175 20.9415L4.22531 22.0055C3.68626 22.1853 3.09191 22.045 2.69011 21.6432C2.28831 21.2414 2.14805 20.6471 2.32781 20.108L3.39188 16.9158C1.48674 13.334 1.99874 8.94666 4.67747 5.89972C7.35619 2.85278 11.6418 1.78303 15.4382 3.21367C19.2346 4.6443 21.7483 8.27632 21.75 12.3333ZM20.25 12.3333C20.249 8.86488 18.0787 5.76742 14.819 4.58225C11.5593 3.39709 7.90643 4.37733 5.67801 7.03522C3.44959 9.69311 3.12157 13.461 4.85719 16.464C4.9647 16.65 4.98723 16.8733 4.91906 17.0771L3.75 20.5833L7.25625 19.4143C7.33262 19.3882 7.41275 19.3749 7.49344 19.3749C7.62516 19.3751 7.7545 19.4101 7.86844 19.4762C10.4211 20.9531 13.568 20.9551 16.1225 19.4814C18.6771 18.0077 20.2507 15.2825 20.25 12.3333Z" fill="#121417"/>
</g>
<defs>
<clipPath id="clip0_3_319">
<rect width="24" height="24" fill="white" transform="translate(0 0.333344)"/>
</clipPath>
</defs>
</svg>
