<svg width="24" height="25" viewBox="0 0 24 25" fill="none" xmlns="http://www.w3.org/2000/svg">
<path d="M16.5 2.53418H7.5C6.10807 2.53567 4.77358 3.08927 3.78933 4.07351C2.80509 5.05776 2.25149 6.39225 2.25 7.78418V16.7842C2.25149 18.1761 2.80509 19.5106 3.78933 20.4948C4.77358 21.4791 6.10807 22.0327 7.5 22.0342H16.5C17.8919 22.0327 19.2264 21.4791 20.2107 20.4948C21.1949 19.5106 21.7485 18.1761 21.75 16.7842V7.78418C21.7485 6.39225 21.1949 5.05776 20.2107 4.07351C19.2264 3.08927 17.8919 2.53567 16.5 2.53418ZM12 16.7842C11.11 16.7842 10.24 16.5203 9.49993 16.0258C8.75991 15.5313 8.18314 14.8285 7.84254 14.0063C7.50195 13.184 7.41283 12.2792 7.58647 11.4063C7.7601 10.5334 8.18868 9.73154 8.81802 9.1022C9.44736 8.47286 10.2492 8.04428 11.1221 7.87065C11.995 7.69701 12.8998 7.78613 13.7221 8.12672C14.5443 8.46732 15.2471 9.04409 15.7416 9.78411C16.2361 10.5241 16.5 11.3942 16.5 12.2842C16.4988 13.4773 16.0243 14.6211 15.1806 15.4648C14.337 16.3084 13.1931 16.7829 12 16.7842ZM17.625 7.78418C17.4025 7.78418 17.185 7.7182 17 7.59458C16.815 7.47097 16.6708 7.29527 16.5856 7.0897C16.5005 6.88413 16.4782 6.65793 16.5216 6.4397C16.565 6.22147 16.6722 6.02102 16.8295 5.86368C16.9868 5.70635 17.1873 5.5992 17.4055 5.5558C17.6238 5.51239 17.85 5.53467 18.0555 5.61982C18.2611 5.70496 18.4368 5.84916 18.5604 6.03416C18.684 6.21917 18.75 6.43668 18.75 6.65918C18.75 6.95755 18.6315 7.2437 18.4205 7.45467C18.2095 7.66565 17.9234 7.78418 17.625 7.78418ZM15 12.2842C15 12.8775 14.8241 13.4575 14.4944 13.9509C14.1648 14.4442 13.6962 14.8288 13.1481 15.0558C12.5999 15.2829 11.9967 15.3423 11.4147 15.2265C10.8328 15.1108 10.2982 14.8251 9.87868 14.4055C9.45912 13.9859 9.1734 13.4514 9.05764 12.8695C8.94189 12.2875 9.0013 11.6843 9.22836 11.1361C9.45542 10.588 9.83994 10.1194 10.3333 9.78977C10.8266 9.46013 11.4067 9.28418 12 9.28418C12.7956 9.28418 13.5587 9.60025 14.1213 10.1629C14.6839 10.7255 15 11.4885 15 12.2842Z" fill="#D1DEE8"/>
</svg>
