<svg width="24" height="25" viewBox="0 0 24 25" fill="none" xmlns="http://www.w3.org/2000/svg">
<path d="M20.25 2.53418H3.75C3.35218 2.53418 2.97064 2.69221 2.68934 2.97352C2.40804 3.25482 2.25 3.63635 2.25 4.03418V20.5342C2.25 20.932 2.40804 21.3135 2.68934 21.5948C2.97064 21.8761 3.35218 22.0342 3.75 22.0342H20.25C20.6478 22.0342 21.0294 21.8761 21.3107 21.5948C21.592 21.3135 21.75 20.932 21.75 20.5342V4.03418C21.75 3.63635 21.592 3.25482 21.3107 2.97352C21.0294 2.69221 20.6478 2.53418 20.25 2.53418ZM9 16.7842C9 16.9831 8.92098 17.1739 8.78033 17.3145C8.63968 17.4552 8.44891 17.5342 8.25 17.5342C8.05109 17.5342 7.86032 17.4552 7.71967 17.3145C7.57902 17.1739 7.5 16.9831 7.5 16.7842V10.7842C7.5 10.5853 7.57902 10.3945 7.71967 10.2538C7.86032 10.1132 8.05109 10.0342 8.25 10.0342C8.44891 10.0342 8.63968 10.1132 8.78033 10.2538C8.92098 10.3945 9 10.5853 9 10.7842V16.7842ZM8.25 9.28418C8.0275 9.28418 7.80999 9.2182 7.62498 9.09458C7.43998 8.97097 7.29578 8.79527 7.21064 8.5897C7.12549 8.38413 7.10321 8.15793 7.14662 7.9397C7.19002 7.72147 7.29717 7.52102 7.4545 7.36368C7.61184 7.20635 7.81229 7.0992 8.03052 7.0558C8.24875 7.01239 8.47495 7.03467 8.68052 7.11981C8.88609 7.20496 9.06179 7.34916 9.1854 7.53416C9.30902 7.71917 9.375 7.93668 9.375 8.15918C9.375 8.45755 9.25647 8.7437 9.0455 8.95467C8.83452 9.16565 8.54837 9.28418 8.25 9.28418ZM17.25 16.7842C17.25 16.9831 17.171 17.1739 17.0303 17.3145C16.8897 17.4552 16.6989 17.5342 16.5 17.5342C16.3011 17.5342 16.1103 17.4552 15.9697 17.3145C15.829 17.1739 15.75 16.9831 15.75 16.7842V13.4092C15.75 12.9119 15.5525 12.435 15.2008 12.0834C14.8492 11.7317 14.3723 11.5342 13.875 11.5342C13.3777 11.5342 12.9008 11.7317 12.5492 12.0834C12.1975 12.435 12 12.9119 12 13.4092V16.7842C12 16.9831 11.921 17.1739 11.7803 17.3145C11.6397 17.4552 11.4489 17.5342 11.25 17.5342C11.0511 17.5342 10.8603 17.4552 10.7197 17.3145C10.579 17.1739 10.5 16.9831 10.5 16.7842V10.7842C10.5009 10.6005 10.5693 10.4235 10.692 10.2868C10.8148 10.1501 10.9834 10.0633 11.166 10.0427C11.3485 10.0221 11.5323 10.0693 11.6824 10.1752C11.8325 10.2811 11.9385 10.4384 11.9803 10.6173C12.4877 10.2731 13.0792 10.0736 13.6914 10.0403C14.3036 10.0069 14.9133 10.141 15.455 10.428C15.9968 10.715 16.4501 11.1442 16.7664 11.6694C17.0826 12.1946 17.2498 12.7961 17.25 13.4092V16.7842Z" fill="#D1DEE8"/>
</svg>
