<svg width="24" height="25" viewBox="0 0 24 25" fill="none" xmlns="http://www.w3.org/2000/svg">
<g clip-path="url(#clip0_3_306)">
<path fill-rule="evenodd" clip-rule="evenodd" d="M10.9922 15.4717C13.0561 14.0976 13.9769 11.5343 13.2592 9.16106C12.5414 6.7878 10.3544 5.16437 7.875 5.16437C5.39558 5.16437 3.20857 6.7878 2.49084 9.16106C1.7731 11.5343 2.69393 14.0976 4.75781 15.4717C2.93952 16.1418 1.38666 17.3819 0.330938 19.007C0.179932 19.2314 0.161484 19.5198 0.28266 19.7616C0.403836 20.0035 0.645857 20.1613 0.916031 20.1747C1.18621 20.1881 1.44266 20.055 1.58719 19.8263C2.97076 17.6984 5.33677 16.4145 7.875 16.4145C10.4132 16.4145 12.7792 17.6984 14.1628 19.8263C14.3917 20.1665 14.8514 20.2599 15.1948 20.0359C15.5382 19.8119 15.6381 19.3536 15.4191 19.007C14.3633 17.3819 12.8105 16.1418 10.9922 15.4717ZM3.75 10.7917C3.75 8.51348 5.59683 6.66666 7.875 6.66666C10.1532 6.66666 12 8.51348 12 10.7917C12 13.0698 10.1532 14.9167 7.875 14.9167C5.5979 14.9141 3.75258 13.0688 3.75 10.7917ZM23.4506 20.0448C23.1037 20.271 22.6391 20.1732 22.4128 19.8263C21.0308 17.6969 18.6636 16.4133 16.125 16.4167C15.7108 16.4167 15.375 16.0809 15.375 15.6667C15.375 15.2524 15.7108 14.9167 16.125 14.9167C17.7863 14.9151 19.2846 13.9171 19.9261 12.3846C20.5677 10.8522 20.2273 9.08445 19.0626 7.89977C17.898 6.71509 16.1363 6.34471 14.5931 6.96009C14.3427 7.06837 14.0531 7.03207 13.8372 6.8653C13.6212 6.69853 13.5128 6.42762 13.5542 6.15791C13.5956 5.88819 13.7802 5.66224 14.0363 5.56791C16.7109 4.50122 19.7592 5.62666 21.099 8.17548C22.4388 10.7243 21.6374 13.8734 19.2422 15.4717C21.0605 16.1418 22.6133 17.3819 23.6691 19.007C23.8953 19.3539 23.7975 19.8185 23.4506 20.0448Z" fill="#121417"/>
</g>
<defs>
<clipPath id="clip0_3_306">
<rect width="24" height="24" fill="white" transform="translate(0 0.666656)"/>
</clipPath>
</defs>
</svg>
