<svg width="24" height="23" viewBox="0 0 24 23" fill="none" xmlns="http://www.w3.org/2000/svg">
<g filter="url(#filter0_d_181_4643)">
<path d="M7.44727 10.7974V4.79742C7.44727 3.60395 7.92137 2.45936 8.76529 1.61544C9.6092 0.77153 10.7538 0.297424 11.9473 0.297424C13.1407 0.297424 14.2853 0.77153 15.1292 1.61544C15.9732 2.45936 16.4473 3.60395 16.4473 4.79742V10.7974C16.4473 11.9909 15.9732 13.1355 15.1292 13.9794C14.2853 14.8233 13.1407 15.2974 11.9473 15.2974C10.7538 15.2974 9.6092 14.8233 8.76529 13.9794C7.92137 13.1355 7.44727 11.9909 7.44727 10.7974ZM19.4473 10.7974C19.4473 10.5985 19.3682 10.4077 19.2276 10.2671C19.0869 10.1264 18.8962 10.0474 18.6973 10.0474C18.4984 10.0474 18.3076 10.1264 18.1669 10.2671C18.0263 10.4077 17.9473 10.5985 17.9473 10.7974C17.9473 12.3887 17.3151 13.9148 16.1899 15.0401C15.0647 16.1653 13.5386 16.7974 11.9473 16.7974C10.356 16.7974 8.82984 16.1653 7.70462 15.0401C6.57941 13.9148 5.94727 12.3887 5.94727 10.7974C5.94727 10.5985 5.86825 10.4077 5.7276 10.2671C5.58694 10.1264 5.39618 10.0474 5.19727 10.0474C4.99835 10.0474 4.80759 10.1264 4.66694 10.2671C4.52628 10.4077 4.44727 10.5985 4.44727 10.7974C4.44955 12.6561 5.14094 14.4478 6.38774 15.8262C7.63455 17.2046 9.34818 18.0718 11.1973 18.2599V21.2974C11.1973 21.4963 11.2763 21.6871 11.4169 21.8278C11.5576 21.9684 11.7484 22.0474 11.9473 22.0474C12.1462 22.0474 12.3369 21.9684 12.4776 21.8278C12.6182 21.6871 12.6973 21.4963 12.6973 21.2974V18.2599C14.5464 18.0718 16.26 17.2046 17.5068 15.8262C18.7536 14.4478 19.445 12.6561 19.4473 10.7974Z" fill="#34A853"/>
</g>
<defs>
<filter id="filter0_d_181_4643" x="0.447266" y="0.297424" width="23" height="29.75" filterUnits="userSpaceOnUse" color-interpolation-filters="sRGB">
<feFlood flood-opacity="0" result="BackgroundImageFix"/>
<feColorMatrix in="SourceAlpha" type="matrix" values="0 0 0 0 0 0 0 0 0 0 0 0 0 0 0 0 0 0 127 0" result="hardAlpha"/>
<feOffset dy="4"/>
<feGaussianBlur stdDeviation="2"/>
<feComposite in2="hardAlpha" operator="out"/>
<feColorMatrix type="matrix" values="0 0 0 0 0 0 0 0 0 0 0 0 0 0 0 0 0 0 0.25 0"/>
<feBlend mode="normal" in2="BackgroundImageFix" result="effect1_dropShadow_181_4643"/>
<feBlend mode="normal" in="SourceGraphic" in2="effect1_dropShadow_181_4643" result="shape"/>
</filter>
</defs>
</svg>
