<svg width="28" height="28" viewBox="0 0 28 28" fill="none" xmlns="http://www.w3.org/2000/svg">
<g clip-path="url(#clip0_181_4224)">
<path d="M10.1539 -0.0205023C10.2216 -0.0204142 10.2894 -0.0203261 10.3592 -0.0202353C10.8597 -0.0135329 11.2862 0.0402125 11.7569 0.218756C11.8061 0.235181 11.8554 0.251606 11.906 0.26853C12.2705 0.398859 12.5893 0.598936 12.9054 0.820318C12.9526 0.849541 12.9999 0.878765 13.0486 0.908873C13.1966 1.05688 13.2116 1.13987 13.2158 1.34569C13.215 1.40702 13.215 1.40702 13.2141 1.46959C13.2146 1.51348 13.2151 1.55737 13.2156 1.60259C13.217 1.75059 13.2164 1.89852 13.2157 2.04652C13.2163 2.15332 13.217 2.26012 13.2177 2.36692C13.2195 2.66114 13.2196 2.95534 13.2194 3.24956C13.2194 3.56658 13.221 3.8836 13.2225 4.20063C13.2249 4.82203 13.2259 5.44342 13.2262 6.06483C13.2265 6.56983 13.2272 7.07482 13.2282 7.57982C13.2305 8.77779 13.2324 9.97577 13.2324 11.1737C13.2324 11.2121 13.2324 11.2504 13.2324 11.2899C13.2325 11.4841 13.2325 11.6784 13.2325 11.8726C13.2325 11.9112 13.2325 11.9498 13.2325 11.9896C13.2325 12.0676 13.2325 12.1456 13.2325 12.2236C13.2325 13.4374 13.235 14.6512 13.2392 15.8649C13.244 17.2282 13.2467 18.5915 13.2465 19.9548C13.2465 20.6768 13.2474 21.3988 13.2508 22.1207C13.2536 22.7355 13.2544 23.3501 13.2524 23.9649C13.2515 24.2786 13.2515 24.5923 13.2542 24.906C13.2566 25.1932 13.2562 25.4802 13.2537 25.7674C13.2532 25.8714 13.2538 25.9753 13.2555 26.0792C13.2673 26.8557 13.2673 26.8557 13.0472 27.1175C12.8947 27.2307 12.7485 27.3171 12.5773 27.3984C12.5405 27.4196 12.5037 27.4407 12.4658 27.4625C11.3821 28.0799 9.99275 28.2037 8.7932 27.8854C7.47209 27.491 6.30483 26.6515 5.61955 25.4393C5.26873 24.7848 4.96211 24.0283 4.97227 23.2764C4.97276 23.2286 4.97326 23.1808 4.97377 23.1315C4.9744 23.0959 4.97504 23.0602 4.97569 23.0234C4.90463 23.028 4.83357 23.0325 4.76036 23.0371C3.4925 23.0335 2.31231 22.3467 1.421 21.4922C0.833191 20.8795 0.421784 20.1675 0.163189 19.3594C0.145706 19.3063 0.128223 19.2532 0.110211 19.1985C-0.241487 17.8976 -0.03634 16.4346 0.600689 15.2578C0.859855 14.8178 1.17945 14.4247 1.53038 14.0547C1.44403 13.8527 1.31706 13.7119 1.17149 13.5488C0.148155 12.3535 -0.0891107 10.9415 -0.000873338 9.40626C0.137889 8.11137 0.897957 6.89425 1.88693 6.07488C3.10458 5.11076 4.58366 4.83226 6.10829 4.99211C7.10689 5.14702 7.92886 5.64801 8.71495 6.25489C9.01659 6.48254 9.2903 6.60489 9.67881 6.56251C9.89087 6.4891 9.98263 6.43409 10.1095 6.24805C10.1808 6.04201 10.1981 5.90417 10.171 5.68751C9.65093 4.68897 8.27842 4.04223 7.25463 3.71311C6.61627 3.51967 5.97009 3.42372 5.30381 3.39063C5.4468 2.48667 6.23241 1.5969 6.93418 1.05616C7.92559 0.34694 8.93219 -0.0221535 10.1539 -0.0205023Z" fill="#0D80F2"/>
<path d="M20.7704 0.837417C21.9514 1.70203 22.7143 2.8323 23.0023 4.27248C23.0222 4.42512 23.0283 4.56985 23.0262 4.72365C23.0258 4.77144 23.0253 4.81924 23.0247 4.86848C23.0238 4.92199 23.0238 4.92199 23.0228 4.97658C23.0939 4.97207 23.1649 4.96755 23.2382 4.96291C24.4887 4.9682 25.6585 5.63295 26.5433 6.46895C27.6518 7.61371 28.0314 8.98602 28.0143 10.5498C27.9792 11.871 27.3647 12.9999 26.4681 13.9453C26.5545 14.1473 26.6815 14.2881 26.827 14.4512C27.8504 15.6465 28.0876 17.0585 27.9994 18.5938C27.8606 19.8886 27.1006 21.1058 26.1116 21.9251C24.8939 22.8893 23.4149 23.1678 21.8902 23.0079C20.8916 22.853 20.0697 22.352 19.2836 21.7451C18.9557 21.4982 18.6717 21.3982 18.265 21.4375C18.0733 21.5142 18.0062 21.5794 17.8925 21.752C17.817 21.9586 17.8002 22.094 17.8275 22.3125C18.3476 23.3111 19.7201 23.9578 20.7439 24.2869C21.3822 24.4804 22.0284 24.5763 22.6947 24.6094C22.5517 25.5134 21.7661 26.4031 21.0643 26.9439C19.8077 27.8428 18.4028 28.2096 16.8585 27.9663C16.3672 27.8663 15.8677 27.6599 15.4314 27.4116C15.3123 27.342 15.3123 27.342 15.1849 27.2839C15.0252 27.1908 14.9301 27.1105 14.8197 26.961C14.7434 26.6198 14.7527 26.2819 14.7565 25.9338C14.7558 25.8268 14.755 25.7199 14.7539 25.6129C14.7516 25.3191 14.7524 25.0253 14.7538 24.7314C14.7546 24.4145 14.7527 24.0976 14.7511 23.7807C14.7485 23.1599 14.7486 22.539 14.7496 21.9182C14.7505 21.4137 14.7503 20.9092 14.7496 20.4046C14.7495 20.3329 14.7494 20.2611 14.7493 20.1872C14.7491 20.0779 14.7489 19.9687 14.7488 19.8595C14.7472 18.8439 14.7466 17.8284 14.7481 16.8128C14.7482 16.7745 14.7482 16.7362 14.7483 16.6968C14.7487 16.3859 14.7492 16.075 14.7497 15.7642C14.7516 14.5515 14.7506 13.3388 14.7473 12.1261C14.7436 10.7635 14.7418 9.40104 14.7431 8.03851C14.7432 7.89324 14.7433 7.74798 14.7435 7.60271C14.7435 7.53123 14.7436 7.45976 14.7436 7.38611C14.7439 6.88216 14.7428 6.37821 14.7411 5.87426C14.739 5.26014 14.739 4.64607 14.7418 4.03196C14.7432 3.71854 14.7436 3.40521 14.7414 3.09179C14.7394 2.80491 14.7401 2.51818 14.7431 2.23131C14.7437 2.1275 14.7433 2.02367 14.7418 1.91987C14.7312 1.14615 14.7312 1.14615 14.9474 0.884667C15.1012 0.769757 15.2483 0.68432 15.4213 0.601577C15.4774 0.57046 15.5336 0.539343 15.5914 0.507283C17.1971 -0.379244 19.2712 -0.164422 20.7704 0.837417Z" fill="#0D80F2"/>
</g>
<defs>
<clipPath id="clip0_181_4224">
<rect width="28" height="28" fill="white"/>
</clipPath>
</defs>
</svg>
