<svg width="28" height="29" viewBox="0 0 28 29" fill="none" xmlns="http://www.w3.org/2000/svg">
<g clip-path="url(#clip0_181_3623)">
<path d="M10.1549 0.263677C10.2226 0.263766 10.2904 0.263854 10.3602 0.263944C10.8607 0.270647 11.2872 0.324392 11.7579 0.502935C11.8071 0.519361 11.8563 0.535786 11.907 0.552709C12.2715 0.683039 12.5903 0.883116 12.9064 1.1045C12.9536 1.13372 13.0009 1.16294 13.0496 1.19305C13.1976 1.34106 13.2126 1.42405 13.2168 1.62987C13.216 1.6912 13.216 1.6912 13.2151 1.75377C13.2156 1.79766 13.2161 1.84155 13.2166 1.88677C13.218 2.03477 13.2173 2.1827 13.2167 2.3307C13.2173 2.4375 13.2179 2.5443 13.2187 2.6511C13.2205 2.94532 13.2206 3.23952 13.2203 3.53374C13.2204 3.85076 13.222 4.16778 13.2234 4.48481C13.2259 5.10621 13.2269 5.7276 13.2272 6.34901C13.2275 6.85401 13.2282 7.359 13.2292 7.864C13.2314 9.06197 13.2333 10.2599 13.2334 11.4579C13.2334 11.4963 13.2334 11.5346 13.2334 11.5741C13.2334 11.7683 13.2334 11.9626 13.2335 12.1568C13.2335 12.1954 13.2335 12.234 13.2335 12.2737C13.2335 12.3518 13.2335 12.4298 13.2335 12.5078C13.2335 13.7216 13.236 14.9353 13.2402 16.1491C13.2449 17.5124 13.2476 18.8757 13.2475 20.239C13.2475 20.961 13.2484 21.683 13.2518 22.4049C13.2546 23.0196 13.2553 23.6343 13.2534 24.249C13.2525 24.5628 13.2525 24.8765 13.2552 25.1902C13.2576 25.4774 13.2572 25.7644 13.2546 26.0516C13.2542 26.1555 13.2548 26.2595 13.2565 26.3634C13.2683 27.1398 13.2683 27.1398 13.0482 27.4017C12.8957 27.5149 12.7495 27.6013 12.5782 27.6826C12.5415 27.7038 12.5047 27.7249 12.4668 27.7467C11.383 28.3641 9.99372 28.4879 8.79418 28.1696C7.47306 27.7751 6.30581 26.9357 5.62052 25.7235C5.26971 25.069 4.96309 24.3125 4.97325 23.5606C4.97374 23.5128 4.97423 23.465 4.97474 23.4157C4.97538 23.38 4.97601 23.3444 4.97667 23.3076C4.90561 23.3121 4.83455 23.3166 4.76133 23.3213C3.49348 23.3177 2.31328 22.6309 1.42198 21.7764C0.834168 21.1637 0.422761 20.4517 0.164166 19.6436C0.146683 19.5905 0.1292 19.5374 0.111187 19.4827C-0.240511 18.1817 -0.0353634 16.7188 0.601666 15.542C0.860831 15.102 1.18043 14.7089 1.53135 14.3389C1.445 14.1369 1.31804 13.9961 1.17247 13.833C0.149132 12.6377 -0.0881341 11.2257 0.000103224 9.69044C0.138866 8.39555 0.898933 7.17843 1.8879 6.35906C3.10556 5.39494 4.58464 5.11644 6.10927 5.27629C7.10787 5.4312 7.92984 5.93218 8.71592 6.53907C9.01757 6.76672 9.29128 6.88907 9.67979 6.84668C9.89185 6.77328 9.98361 6.71827 10.1105 6.53223C10.1818 6.32619 10.1991 6.18835 10.172 5.97168C9.65191 4.97315 8.2794 4.32641 7.25561 3.99729C6.61724 3.80384 5.97106 3.7079 5.30479 3.67481C5.44778 2.77085 6.23339 1.88108 6.93516 1.34034C7.92657 0.63112 8.93316 0.262026 10.1549 0.263677Z" fill="#0D80F2"/>
<path d="M20.7709 1.12172C21.9519 1.98633 22.7148 3.1166 23.0028 4.55678C23.0227 4.70942 23.0288 4.85416 23.0267 5.00795C23.0262 5.05575 23.0257 5.10354 23.0252 5.15279C23.0243 5.20629 23.0243 5.20629 23.0233 5.26088C23.0944 5.25637 23.1654 5.25186 23.2386 5.24721C24.4892 5.2525 25.6589 5.91725 26.5438 6.75325C27.6523 7.89801 28.0318 9.27033 28.0148 10.8341C27.9796 12.1553 27.3652 13.2842 26.4686 14.2296C26.555 14.4316 26.6819 14.5724 26.8275 14.7355C27.8508 15.9308 28.0881 17.3428 27.9999 18.8781C27.8611 20.1729 27.101 21.3901 26.1121 22.2094C24.8944 23.1736 23.4153 23.4521 21.8907 23.2922C20.8921 23.1373 20.0701 22.6363 19.2841 22.0294C18.9562 21.7825 18.6722 21.6825 18.2655 21.7218C18.0738 21.7985 18.0067 21.8637 17.8929 22.0363C17.8174 22.2429 17.8007 22.3783 17.828 22.5968C18.3481 23.5954 19.7206 24.2421 20.7444 24.5712C21.3827 24.7647 22.0289 24.8606 22.6952 24.8937C22.5522 25.7977 21.7666 26.6874 21.0648 27.2282C19.8082 28.1271 18.4033 28.4939 16.859 28.2506C16.3677 28.1506 15.8682 27.9442 15.4319 27.6959C15.3127 27.6263 15.3127 27.6263 15.1854 27.5682C15.0257 27.4751 14.9306 27.3948 14.8202 27.2453C14.7439 26.9041 14.7532 26.5662 14.757 26.2181C14.7563 26.1111 14.7554 26.0042 14.7544 25.8972C14.7521 25.6034 14.7529 25.3096 14.7542 25.0157C14.7551 24.6988 14.7532 24.3819 14.7516 24.065C14.749 23.4442 14.7491 22.8233 14.7501 22.2025C14.7509 21.698 14.7508 21.1935 14.7501 20.6889C14.75 20.6172 14.7499 20.5454 14.7497 20.4715C14.7496 20.3622 14.7494 20.253 14.7492 20.1438C14.7477 19.1282 14.7471 18.1127 14.7486 17.0971C14.7487 17.0588 14.7487 17.0205 14.7488 16.9811C14.7492 16.6702 14.7497 16.3593 14.7502 16.0485C14.7521 14.8358 14.7511 13.6231 14.7478 12.4104C14.744 11.0478 14.7423 9.68534 14.7436 8.32281C14.7437 8.17755 14.7438 8.03228 14.744 7.88701C14.744 7.81554 14.7441 7.74406 14.7441 7.67042C14.7444 7.16646 14.7433 6.66252 14.7415 6.15856C14.7395 5.54444 14.7395 4.93037 14.7423 4.31626C14.7437 4.00284 14.7441 3.68951 14.7419 3.3761C14.7399 3.08921 14.7406 2.80248 14.7436 2.51561C14.7442 2.4118 14.7438 2.30797 14.7423 2.20417C14.7317 1.43046 14.7317 1.43046 14.9479 1.16897C15.1017 1.05406 15.2488 0.968621 15.4218 0.885879C15.4779 0.854762 15.5341 0.823645 15.5919 0.791585C17.1976 -0.094942 19.2717 0.119879 20.7709 1.12172Z" fill="#0D80F2"/>
</g>
<defs>
<clipPath id="clip0_181_3623">
<rect width="28" height="28" fill="white" transform="translate(0 0.28418)"/>
</clipPath>
</defs>
</svg>
