<svg width="24" height="24" viewBox="0 0 24 24" fill="none" xmlns="http://www.w3.org/2000/svg">
<path fill-rule="evenodd" clip-rule="evenodd" d="M12 16.5C14.4842 16.4974 16.4974 14.4842 16.5 12V6C16.5 3.51472 14.4853 1.5 12 1.5C9.51472 1.5 7.5 3.51472 7.5 6V12C7.50258 14.4842 9.51579 16.4974 12 16.5ZM9 6C9 4.34315 10.3431 3 12 3C13.6569 3 15 4.34315 15 6V12C15 13.6569 13.6569 15 12 15C10.3431 15 9 13.6569 9 12V6ZM12.75 19.4625V21.75C12.75 22.1642 12.4142 22.5 12 22.5C11.5858 22.5 11.25 22.1642 11.25 21.75V19.4625C7.41988 19.0728 4.50473 15.8499 4.5 12C4.5 11.5858 4.83579 11.25 5.25 11.25C5.66421 11.25 6 11.5858 6 12C6 15.3137 8.68629 18 12 18C15.3137 18 18 15.3137 18 12C18 11.5858 18.3358 11.25 18.75 11.25C19.1642 11.25 19.5 11.5858 19.5 12C19.4953 15.8499 16.5801 19.0728 12.75 19.4625Z" fill="#121417"/>
</svg>
