<svg width="24" height="25" viewBox="0 0 24 25" fill="none" xmlns="http://www.w3.org/2000/svg">
<path d="M23.0308 7.56474L20.2277 10.3679C19.6614 16.9322 14.1255 22.0341 7.50017 22.0341C6.13892 22.0341 5.01673 21.8185 4.16454 21.3929C3.47736 21.0488 3.19611 20.6804 3.12579 20.5754C3.0631 20.4813 3.02246 20.3744 3.00692 20.2624C2.99138 20.1505 3.00133 20.0365 3.03604 19.9289C3.07075 19.8214 3.12931 19.7231 3.20735 19.6413C3.2854 19.5596 3.3809 19.4966 3.48673 19.4569C3.51111 19.4476 5.75923 18.5841 7.18704 16.9407C6.39522 16.2897 5.70399 15.5251 5.13579 14.6719C3.97329 12.946 2.67204 9.94787 3.07329 5.46755C3.08601 5.32519 3.13915 5.18942 3.22644 5.07625C3.31373 4.96307 3.43154 4.87719 3.566 4.82872C3.70047 4.78026 3.84598 4.77122 3.9854 4.80268C4.12483 4.83415 4.25236 4.90479 4.35298 5.0063C4.38579 5.03912 7.47298 8.10943 11.2474 9.10505V8.53412C11.2459 7.93542 11.3643 7.34249 11.5955 6.79024C11.8267 6.23799 12.1661 5.73759 12.5936 5.31849C13.0088 4.90386 13.5029 4.57659 14.0466 4.356C14.5904 4.13541 15.1728 4.02596 15.7595 4.03412C16.5466 4.04188 17.3183 4.25317 17.9996 4.64743C18.6808 5.0417 19.2485 5.60553 19.6474 6.28412H22.5002C22.6486 6.284 22.7937 6.32792 22.9172 6.41033C23.0406 6.49273 23.1368 6.60991 23.1936 6.74702C23.2505 6.88414 23.2653 7.03503 23.2363 7.1806C23.2073 7.32616 23.1358 7.45985 23.0308 7.56474Z" fill="#D1DEE8"/>
</svg>
