<svg width="25" height="25" viewBox="0 0 25 25" fill="none" xmlns="http://www.w3.org/2000/svg">
<path d="M20.9746 4.4679H4.47461C4.07678 4.4679 3.69525 4.62593 3.41395 4.90724C3.13264 5.18854 2.97461 5.57007 2.97461 5.9679V17.9679C2.97461 18.3657 3.13264 18.7473 3.41395 19.0286C3.69525 19.3099 4.07678 19.4679 4.47461 19.4679H10.1399L11.4224 21.7123C11.5536 21.9418 11.7432 22.1325 11.9719 22.2652C12.2006 22.3979 12.4602 22.4678 12.7246 22.4678C12.989 22.4678 13.2487 22.3979 13.4773 22.2652C13.706 22.1325 13.8956 21.9418 14.0268 21.7123L15.3093 19.4679H20.9746C21.3724 19.4679 21.754 19.3099 22.0353 19.0286C22.3166 18.7473 22.4746 18.3657 22.4746 17.9679V5.9679C22.4746 5.57007 22.3166 5.18854 22.0353 4.90724C21.754 4.62593 21.3724 4.4679 20.9746 4.4679ZM15.7246 14.2179H9.72461C9.5257 14.2179 9.33493 14.1389 9.19428 13.9982C9.05363 13.8576 8.97461 13.6668 8.97461 13.4679C8.97461 13.269 9.05363 13.0782 9.19428 12.9376C9.33493 12.7969 9.5257 12.7179 9.72461 12.7179H15.7246C15.9235 12.7179 16.1143 12.7969 16.2549 12.9376C16.3956 13.0782 16.4746 13.269 16.4746 13.4679C16.4746 13.6668 16.3956 13.8576 16.2549 13.9982C16.1143 14.1389 15.9235 14.2179 15.7246 14.2179ZM15.7246 11.2179H9.72461C9.5257 11.2179 9.33493 11.1389 9.19428 10.9982C9.05363 10.8576 8.97461 10.6668 8.97461 10.4679C8.97461 10.269 9.05363 10.0782 9.19428 9.93757C9.33493 9.79691 9.5257 9.7179 9.72461 9.7179H15.7246C15.9235 9.7179 16.1143 9.79691 16.2549 9.93757C16.3956 10.0782 16.4746 10.269 16.4746 10.4679C16.4746 10.6668 16.3956 10.8576 16.2549 10.9982C16.1143 11.1389 15.9235 11.2179 15.7246 11.2179Z" fill="#0D80F2"/>
</svg>
