<svg width="24" height="25" viewBox="0 0 24 25" fill="none" xmlns="http://www.w3.org/2000/svg">
<path d="M20.1561 20.8951C20.0915 21.0127 19.9966 21.1109 19.8812 21.1793C19.7657 21.2478 19.6341 21.284 19.4999 21.2842H14.9999C14.8736 21.2841 14.7495 21.2522 14.6389 21.1914C14.5282 21.1306 14.4348 21.0429 14.3671 20.9364L10.5711 14.9711L5.05488 21.0386C4.9204 21.183 4.73442 21.2686 4.53723 21.2769C4.34005 21.2851 4.14757 21.2153 4.00151 21.0826C3.85546 20.9498 3.76761 20.7649 3.75701 20.5678C3.74641 20.3707 3.81391 20.1774 3.94488 20.0298L9.73581 13.6548L3.86706 4.4373C3.79478 4.32391 3.75432 4.19316 3.74991 4.05876C3.74551 3.92436 3.77732 3.79125 3.84201 3.67336C3.90671 3.55547 4.00191 3.45714 4.11765 3.38867C4.23338 3.32021 4.3654 3.28411 4.49988 3.28418H8.99988C9.1261 3.28422 9.25028 3.31612 9.3609 3.37692C9.47152 3.43771 9.565 3.52545 9.63269 3.63199L13.4286 9.5973L18.9449 3.5298C19.0793 3.38535 19.2653 3.29973 19.4625 3.29149C19.6597 3.28325 19.8522 3.35306 19.9982 3.48579C20.1443 3.61853 20.2321 3.80347 20.2427 4.00054C20.2533 4.19761 20.1858 4.39092 20.0549 4.53855L14.2639 10.9089L20.1327 20.132C20.2046 20.2454 20.2447 20.3761 20.2488 20.5103C20.2529 20.6446 20.2209 20.7775 20.1561 20.8951Z" fill="#D1DEE8"/>
</svg>
